<svg xmlns="http://www.w3.org/2000/svg" width="30" height="30" viewBox="0 0 30 30">
  <g id="Icon_ionic-ios-home" data-name="Icon ionic-ios-home" transform="translate(-3.376 -3.375)">
    <path id="Path_1" data-name="Path 1" d="M18.553,7.322a.286.286,0,0,0-.364,0L6.858,16.356a.308.308,0,0,0-.108.224V33.229a.145.145,0,0,0,.146.145H14.74a.145.145,0,0,0,.146-.145V23.1a.145.145,0,0,1,.146-.145h6.683a.145.145,0,0,1,.146.145V33.23a.145.145,0,0,0,.146.145H29.85A.145.145,0,0,0,30,33.23V16.58a.292.292,0,0,0-.108-.224Z" fill="#f4a59b"/>
    <path id="Path_2" data-name="Path 2" d="M32.985,14.358,19.359,3.713a1.614,1.614,0,0,0-1.976,0l-5.934,4.7V5.449a.143.143,0,0,0-.145-.141H6.98a.143.143,0,0,0-.145.141v6.483L3.76,14.4a.968.968,0,0,0-.086,1.47,1.016,1.016,0,0,0,.718.288,1.032,1.032,0,0,0,.635-.218L18.278,5.534a.131.131,0,0,1,.093-.029.177.177,0,0,1,.093.028L31.724,15.9a1.028,1.028,0,0,0,1.369-.092.955.955,0,0,0-.108-1.45Z" fill="#f4a59b"/>
  </g>
</svg>
