<svg xmlns="http://www.w3.org/2000/svg" width="30" height="30" viewBox="0 0 30 30">
  <g id="Icon_ionic-ios-home" data-name="Icon ionic-ios-home" transform="translate(-3.374 -3.375)">
    <path id="Path_1" data-name="Path 1" d="M18.552,7.321a.286.286,0,0,0-.363,0L6.859,16.356a.3.3,0,0,0-.109.224V33.23a.145.145,0,0,0,.145.145h7.844a.145.145,0,0,0,.145-.145V23.1a.145.145,0,0,1,.145-.145h6.682a.145.145,0,0,1,.145.145V33.23a.145.145,0,0,0,.145.145h7.844a.145.145,0,0,0,.145-.145V16.58a.292.292,0,0,0-.109-.224Z" transform="translate(0)" fill="#7c7c7c"/>
    <path id="Path_2" data-name="Path 2" d="M32.983,14.358,19.358,3.713a1.614,1.614,0,0,0-1.975,0l-5.933,4.7V5.449a.143.143,0,0,0-.144-.141H6.98a.143.143,0,0,0-.144.141v6.483L3.757,14.4a.968.968,0,0,0-.087,1.47,1.016,1.016,0,0,0,.714.288,1.032,1.032,0,0,0,.634-.218L18.276,5.534a.131.131,0,0,1,.094-.028.178.178,0,0,1,.094.028L31.722,15.9a1.032,1.032,0,0,0,.634.218,1.011,1.011,0,0,0,.714-.288.963.963,0,0,0,.3-.752A.992.992,0,0,0,32.983,14.358Z" fill="#7c7c7c"/>
  </g>
</svg>
