<svg xmlns="http://www.w3.org/2000/svg" width="30" height="30" viewBox="0 0 30 30">
  <path id="Icon_ionic-ios-settings" data-name="Icon ionic-ios-settings" d="M32.023,19.5A3.859,3.859,0,0,1,34.5,15.9a15.3,15.3,0,0,0-1.852-4.46,3.913,3.913,0,0,1-1.57.336,3.851,3.851,0,0,1-3.523-5.42A15.258,15.258,0,0,0,23.1,4.5a3.857,3.857,0,0,1-7.2,0,15.3,15.3,0,0,0-4.461,1.851,3.851,3.851,0,0,1-3.523,5.42,3.786,3.786,0,0,1-1.57-.336A15.634,15.634,0,0,0,4.5,15.9a3.858,3.858,0,0,1,.008,7.2,15.3,15.3,0,0,0,1.852,4.46,3.853,3.853,0,0,1,5.086,5.085A15.393,15.393,0,0,0,15.906,34.5a3.85,3.85,0,0,1,7.188,0,15.3,15.3,0,0,0,4.461-1.851,3.857,3.857,0,0,1,5.086-5.085,15.385,15.385,0,0,0,1.852-4.46A3.878,3.878,0,0,1,32.023,19.5ZM19.57,25.737a6.248,6.248,0,1,1,6.25-6.248A6.247,6.247,0,0,1,19.57,25.737Z" transform="translate(-4.5 -4.5)" fill="#f4a59b"/>
</svg>
