<svg xmlns="http://www.w3.org/2000/svg" width="30" height="25" viewBox="0 0 30 25">
  <g id="Icon_ionic-ios-camera" data-name="Icon ionic-ios-camera" transform="translate(-4.5 -7.875)">
    <path id="Path_3" data-name="Path 3" d="M22.043,19.336A4.043,4.043,0,1,1,18,15.293,4.043,4.043,0,0,1,22.043,19.336Z" transform="translate(1.5 2.897)" fill="#f4a59b"/>
    <path id="Path_4" data-name="Path 4" d="M32.117,12.042H27.859a1.216,1.216,0,0,1-.937-.469c-2.219-2.76-3.055-3.7-3.961-3.7h-6.68c-.914,0-1.812.937-4.039,3.707a1.192,1.192,0,0,1-.93.46h-.32v-.694a.664.664,0,0,0-.625-.694H8.336a.664.664,0,0,0-.625.694v.694H7.125A2.658,2.658,0,0,0,4.5,14.707V29.984a2.865,2.865,0,0,0,2.617,2.891h25A2.682,2.682,0,0,0,34.5,29.984V14.707A2.47,2.47,0,0,0,32.117,12.042Zm-12.3,17.4c-3.93.2-7.164-3.394-6.984-7.76.156-3.811,2.93-6.892,6.359-7.066,3.93-.2,7.164,3.394,6.984,7.76C26.016,26.182,23.242,29.264,19.813,29.438ZM27,17.076a1.135,1.135,0,1,1,1.016-1.128A1.074,1.074,0,0,1,27,17.076Z" transform="translate(0 0)" fill="#f4a59b"/>
  </g>
</svg>
